<svg width="40" height="41" viewBox="0 0 40 41" fill="none" xmlns="http://www.w3.org/2000/svg">
<path d="M19.9999 15.6243C17.1328 15.6243 14.7929 17.9695 14.7929 20.8433C14.7929 23.7171 17.1328 26.0623 19.9999 26.0623C22.8671 26.0623 25.207 23.7171 25.207 20.8433C25.207 17.9695 22.8671 15.6243 19.9999 15.6243ZM35.6171 20.8433C35.6171 18.6821 35.6367 16.5404 35.5156 14.3831C35.3945 11.8774 34.8242 9.65351 32.996 7.82117C31.164 5.98492 28.9492 5.4172 26.4492 5.29583C24.2929 5.17446 22.1562 5.19404 20.0038 5.19404C17.8476 5.19404 15.7109 5.17446 13.5585 5.29583C11.0585 5.4172 8.83979 5.98883 7.01166 7.82117C5.17963 9.65742 4.61322 11.8774 4.49213 14.3831C4.37103 16.5443 4.39057 18.686 4.39057 20.8433C4.39057 23.0006 4.37103 25.1462 4.49213 27.3035C4.61322 29.8092 5.18353 32.0331 7.01166 33.8654C8.84369 35.7017 11.0585 36.2694 13.5585 36.3908C15.7148 36.5121 17.8515 36.4925 20.0038 36.4925C22.1601 36.4925 24.2968 36.5121 26.4492 36.3908C28.9492 36.2694 31.1679 35.6978 32.996 33.8654C34.8281 32.0292 35.3945 29.8092 35.5156 27.3035C35.6406 25.1462 35.6171 23.0045 35.6171 20.8433ZM19.9999 28.8735C15.5663 28.8735 11.9882 25.2871 11.9882 20.8433C11.9882 16.3995 15.5663 12.8131 19.9999 12.8131C24.4335 12.8131 28.0117 16.3995 28.0117 20.8433C28.0117 25.2871 24.4335 28.8735 19.9999 28.8735ZM28.3398 14.3596C27.3046 14.3596 26.4687 13.5218 26.4687 12.4842C26.4687 11.4467 27.3046 10.6088 28.3398 10.6088C29.3749 10.6088 30.2109 11.4467 30.2109 12.4842C30.2112 12.7306 30.163 12.9746 30.0691 13.2023C29.9752 13.43 29.8373 13.6368 29.6635 13.811C29.4897 13.9852 29.2833 14.1234 29.0562 14.2175C28.829 14.3116 28.5856 14.3599 28.3398 14.3596Z" fill="white"/>
</svg>
