<svg width="40" height="41" viewBox="0 0 40 41" fill="none" xmlns="http://www.w3.org/2000/svg">
<g clip-path="url(#clip0_698_365)">
<path d="M20 0.797119C31.0275 0.797119 40 8.09389 40 17.0645C40 20.6553 38.6125 23.8877 35.7125 27.0725C31.5175 31.9137 22.135 37.8097 20 38.7118C17.925 39.5888 18.165 38.2181 18.26 37.6769L18.2675 37.6318L18.5525 35.9154C18.62 35.4042 18.69 34.6099 18.4875 34.1037C18.2625 33.5449 17.3775 33.2542 16.7275 33.1139C7.115 31.8435 0 25.1055 0 17.0645C0 8.09389 8.975 0.797119 20 0.797119ZM12.555 20.0564H8.7425V13.1204C8.7425 13.0172 8.70176 12.9182 8.62916 12.8449C8.55656 12.7717 8.458 12.7302 8.355 12.7296H6.95C6.89878 12.7296 6.84807 12.7397 6.80075 12.7593C6.75344 12.7789 6.71044 12.8077 6.67423 12.844C6.63801 12.8803 6.60929 12.9234 6.58969 12.9709C6.57009 13.0183 6.56 13.0691 6.56 13.1204V21.8555C6.56 21.9583 6.6025 22.056 6.67 22.1236V22.1262L6.675 22.1312L6.68 22.1362C6.7525 22.2061 6.84941 22.2447 6.95 22.2439H12.555C12.77 22.2439 12.9425 22.0685 12.9425 21.853V20.4498C12.9428 20.3985 12.9331 20.3476 12.9138 20.3C12.8945 20.2525 12.866 20.2092 12.83 20.1727C12.7941 20.1361 12.7512 20.1071 12.7041 20.0871C12.6569 20.0672 12.6062 20.0567 12.555 20.0564ZM14.5325 12.7296C14.4291 12.7296 14.3299 12.7707 14.2567 12.844C14.1836 12.9173 14.1425 13.0168 14.1425 13.1204V21.8555C14.1425 22.071 14.3175 22.2439 14.5325 22.2439H15.9375C16.1525 22.2439 16.325 22.0685 16.325 21.8555V13.1204C16.325 13.0172 16.2843 12.9182 16.2117 12.8449C16.1391 12.7717 16.0405 12.7302 15.9375 12.7296H14.5325ZM24.19 12.7296C24.0866 12.7296 23.9874 12.7707 23.9142 12.844C23.8411 12.9173 23.8 13.0168 23.8 13.1204V18.3074L19.8075 12.905C19.7974 12.8918 19.7866 12.8793 19.775 12.8674V12.8649C19.7671 12.8561 19.7588 12.8477 19.75 12.8398L19.7425 12.8323C19.7339 12.8241 19.7247 12.8165 19.715 12.8097H19.7125L19.7 12.7997L19.6925 12.7947C19.6886 12.7918 19.6844 12.7893 19.68 12.7872L19.66 12.7747H19.655L19.6475 12.7696L19.6225 12.7596L19.6125 12.7546C19.6043 12.7516 19.596 12.7491 19.5875 12.7471H19.5825L19.575 12.7446L19.5525 12.7396H19.5375L19.53 12.7371H19.52L19.515 12.7346H18.08C17.977 12.7346 17.8782 12.7754 17.8051 12.8482C17.732 12.9209 17.6907 13.0197 17.69 13.123V21.858C17.69 22.0735 17.865 22.2464 18.08 22.2464H19.48C19.6975 22.2464 19.8725 22.071 19.8725 21.858V16.6711L23.8725 22.0836C23.8991 22.1208 23.9321 22.1531 23.97 22.1788L23.9725 22.1813L23.9975 22.1963L24.0075 22.2013C24.0139 22.2051 24.0206 22.2085 24.0275 22.2113L24.045 22.2189L24.0575 22.2239C24.0658 22.2266 24.0741 22.2291 24.0825 22.2314H24.09C24.1225 22.2408 24.1562 22.2458 24.19 22.2464H25.59C25.8075 22.2464 25.9825 22.071 25.9825 21.858V13.1204C25.9825 13.0168 25.9414 12.9173 25.8683 12.844C25.7951 12.7707 25.6959 12.7296 25.5925 12.7296H24.19ZM33.7275 14.5262V13.123C33.7278 13.0716 33.7181 13.0207 33.6988 12.9732C33.6795 12.9256 33.651 12.8823 33.615 12.8458C33.5791 12.8093 33.5363 12.7802 33.4891 12.7603C33.4419 12.7403 33.3912 12.7299 33.34 12.7296H27.735C27.6341 12.7297 27.5372 12.7692 27.465 12.8398H27.4625L27.46 12.8448L27.455 12.8523C27.3852 12.9241 27.3458 13.0202 27.345 13.1204V21.8555C27.345 21.9583 27.3875 22.056 27.455 22.1236L27.46 22.1312L27.465 22.1362C27.5376 22.2058 27.6345 22.2445 27.735 22.2439H33.34C33.555 22.2439 33.7275 22.0685 33.7275 21.853V20.4498C33.7278 20.3985 33.7181 20.3476 33.6988 20.3C33.6795 20.2525 33.651 20.2092 33.615 20.1727C33.5791 20.1361 33.5363 20.1071 33.4891 20.0871C33.4419 20.0672 33.3912 20.0567 33.34 20.0564H29.525V18.5805H33.3375C33.5525 18.5805 33.725 18.4051 33.725 18.1896V16.7864C33.7253 16.735 33.7156 16.6841 33.6963 16.6366C33.677 16.589 33.6485 16.5458 33.6125 16.5092C33.5766 16.4727 33.5337 16.4436 33.4866 16.4237C33.4394 16.4037 33.3887 16.3933 33.3375 16.393H29.525V14.9171H33.3375C33.5525 14.9171 33.725 14.7417 33.725 14.5262H33.7275Z" fill="white"/>
</g>
<defs>
<clipPath id="clip0_698_365">
<rect width="40" height="40.0922" fill="white" transform="translate(0 0.797119)"/>
</clipPath>
</defs>
</svg>
