<svg width="19" height="19" viewBox="0 0 19 19" fill="none" xmlns="http://www.w3.org/2000/svg">
<path d="M7.05004 5.81514C7.31341 5.65977 7.64 5.63447 7.89987 5.82959L12.9567 9.00928C13.2061 9.16826 13.3606 9.44648 13.3606 9.75C13.3606 10.0535 13.2061 10.3317 12.9567 10.4907L7.89987 13.6704C7.64 13.833 7.31341 13.8402 7.05004 13.6849C6.78315 13.5331 6.6181 13.244 6.6181 12.9297V6.53779C6.6181 6.25596 6.78315 5.96689 7.05004 5.81514ZM18.4174 9.75C18.4174 14.8592 14.393 19 9.42746 19C4.46191 19 0.4375 14.8592 0.4375 9.75C0.4375 4.64082 4.46191 0.5 9.42746 0.5C14.393 0.5 18.4174 4.64082 18.4174 9.75ZM9.42746 2.23437C5.39251 2.23437 2.12312 5.59834 2.12312 9.75C2.12312 13.9017 5.39251 17.2656 9.42746 17.2656C13.4624 17.2656 16.7318 13.9017 16.7318 9.75C16.7318 5.59834 13.4624 2.23437 9.42746 2.23437Z" fill="#1E1A1D"/>
</svg>
