<svg width="40" height="41" viewBox="0 0 40 41" fill="none" xmlns="http://www.w3.org/2000/svg">
<g clip-path="url(#clip0_698_359)">
<path d="M39.1667 11.6672C38.9402 10.8574 38.499 10.1242 37.8901 9.54565C37.2639 8.94928 36.4964 8.52269 35.6601 8.30613C32.5301 7.47923 19.9901 7.47923 19.9901 7.47923C14.7623 7.41962 9.53577 7.68182 4.34005 8.26437C3.5037 8.49693 2.73766 8.93305 2.11005 9.53395C1.49339 10.1287 1.04672 10.862 0.813385 11.6655C0.252874 14.6921 -0.0194612 17.7651 5.20763e-05 20.8433C-0.0199479 23.9187 0.251719 26.9908 0.813385 30.0211C1.04172 30.8212 1.48672 31.5512 2.10505 32.1409C2.72339 32.7306 3.49339 33.1566 4.34005 33.3821C7.51172 34.2073 19.9901 34.2073 19.9901 34.2073C25.2245 34.267 30.4577 34.0048 35.6601 33.4222C36.4964 33.2056 37.2639 32.7791 37.8901 32.1827C38.4988 31.6042 38.9395 30.871 39.1651 30.0611C39.7402 27.0358 40.0199 23.9614 40.0001 20.8817C40.0433 17.7889 39.764 14.7001 39.1667 11.6655V11.6672ZM16.0034 26.5631V15.1251L26.4367 20.845L16.0034 26.5631Z" fill="white"/>
</g>
<defs>
<clipPath id="clip0_698_359">
<rect width="40" height="40.0922" fill="white" transform="translate(0 0.797119)"/>
</clipPath>
</defs>
</svg>
